<?xml version="1.0" encoding="UTF-8"?>
<svg version="1.1" xmlns="http://www.w3.org/2000/svg" width="1150" height="440">
<path d="M0 0 C11.23753261 11.73239643 18.16068583 26.64754402 21.625 42.375 C21.79298096 43.12612061 21.96096191 43.87724121 22.1340332 44.65112305 C23.46020817 51.29202837 23.25 56.66566692 23.25 63.75 C3.45 63.75 -16.35 63.75 -36.75 63.75 C-38.73 55.335 -38.73 55.335 -40.75 46.75 C-46.39524466 35.0656564 -54.58254708 28.1517058 -66.75 23.75 C-87.44446642 17.16414451 -111.47686307 16.91344208 -131.375 26.1875 C-139.59035833 30.72865284 -144.59239762 36.30462258 -148.0625 45.0625 C-149.68230531 53.75054666 -149.43794589 61.08144653 -144.75 68.75 C-138.17897547 78.12485338 -126.39639947 81.07817182 -115.84375 83.9765625 C-114.77010696 84.2741748 -113.69646393 84.57178711 -112.59028625 84.87841797 C-103.55646385 87.34065143 -94.46963355 89.54735421 -85.35546875 91.6875 C-84.64836069 91.85354359 -83.94125263 92.01958717 -83.21271706 92.19066238 C-76.64831961 93.72956308 -70.08116587 95.25648629 -63.51098633 96.77050781 C3.95928666 112.33917014 3.95928666 112.33917014 21.35302734 138.40283203 C33.71365918 158.21838391 35.76848652 182.13189416 31.25 204.75 C25.75856761 227.37575751 11.50439189 247.36720374 -8.33349609 259.65991211 C-30.3016227 272.6916994 -54.37772247 277.86266352 -79.75 278.75 C-81.44189453 278.811875 -81.44189453 278.811875 -83.16796875 278.875 C-119.15849698 279.51412148 -158.49874573 272.87063449 -185.38916016 247.11767578 C-186.85534043 245.67444043 -188.30333996 244.21280129 -189.75 242.75 C-190.43707031 242.07324219 -191.12414062 241.39648438 -191.83203125 240.69921875 C-207.48600291 224.19717639 -212.75 200.80589183 -212.75 178.75 C-192.95 178.75 -173.15 178.75 -152.75 178.75 C-150.77 185.68 -148.79 192.61 -146.75 199.75 C-140.41589905 212.29400384 -131.64161689 218.22475669 -118.5 222.7421875 C-108.48656163 225.43329906 -98.91714733 226.11954566 -88.5625 226.0625 C-87.87779633 226.06067719 -87.19309265 226.05885437 -86.48764038 226.05697632 C-69.22414889 225.97953215 -49.78388183 224.63841439 -36.75 211.75 C-29.43216365 202.8150525 -27.85504317 194.13904736 -28.75 182.75 C-30.8136355 175.34519026 -35.27039627 169.85912042 -41.8046875 165.8984375 C-48.7331108 162.45696685 -55.82189091 159.98051972 -63.2578125 157.87890625 C-64.161828 157.62229721 -65.06584351 157.36568817 -65.99725342 157.1013031 C-75.86438197 154.35750124 -85.84330978 152.16221153 -95.85012817 149.9961853 C-179.20367078 131.90415009 -179.20367078 131.90415009 -196.75 104.75 C-208.36738897 84.21911814 -211.121694 59.05342219 -205.7265625 36.13671875 C-198.45324433 10.91285135 -183.60093671 -7.47550044 -160.75 -20.25 C-111.5343052 -46.65142228 -40.47762251 -37.68606234 0 0 Z " fill="#FFFFFF" transform="translate(212.75,161.25)"/>
<path d="M0 0 C15.04831327 14.95973589 22.51537939 35.61354196 24.49316406 56.484375 C24.49316406 59.124375 24.49316406 61.764375 24.49316406 64.484375 C4.69316406 64.484375 -15.10683594 64.484375 -35.50683594 64.484375 C-37.48683594 56.564375 -37.48683594 56.564375 -39.50683594 48.484375 C-42.58357323 42.5272879 -45.43678875 37.90441613 -50.50683594 33.484375 C-51.22871094 32.824375 -51.95058594 32.164375 -52.69433594 31.484375 C-69.82408432 19.3032206 -93.06392793 17.77013226 -113.30761719 21.1796875 C-125.85779806 23.79218601 -137.10657946 28.70856293 -144.50683594 39.484375 C-148.59302691 46.09153803 -148.26384132 53.97453751 -147.50683594 61.484375 C-145.86928107 68.20029945 -142.30016294 72.78539822 -136.50683594 76.484375 C-130.67663043 79.60687557 -124.94159659 81.83805517 -118.61230469 83.73046875 C-117.14001656 84.17403969 -117.14001656 84.17403969 -115.63798523 84.62657166 C-101.19075367 88.87058568 -86.48114146 92.14116411 -71.81933594 95.546875 C-21.79533991 107.18001081 -21.79533991 107.18001081 -8.31933594 113.921875 C-7.53598877 114.30311523 -6.7526416 114.68435547 -5.94555664 115.07714844 C-0.23361757 117.93401298 4.73530914 121.20667057 9.49316406 125.484375 C11.00910156 126.598125 11.00910156 126.598125 12.55566406 127.734375 C25.03646781 138.34824412 31.72258498 155.59616974 33.49316406 171.484375 C34.7776711 199.666509 30.52158149 223.21600537 11.11816406 244.734375 C-13.89721613 271.50469353 -48.17153481 277.96292959 -83.28808594 279.66796875 C-117.67698773 280.37744852 -154.91335337 273.66843672 -181.50683594 250.484375 C-182.12816406 249.99453125 -182.74949219 249.5046875 -183.38964844 249 C-200.08936596 235.67018063 -209.10478451 214.22936459 -211.50683594 193.484375 C-211.50683594 188.864375 -211.50683594 184.244375 -211.50683594 179.484375 C-191.70683594 179.484375 -171.90683594 179.484375 -151.50683594 179.484375 C-150.18683594 185.094375 -148.86683594 190.704375 -147.50683594 196.484375 C-142.35903079 208.86693332 -135.09808315 216.26478144 -122.80761719 221.671875 C-111.34645853 226.11900076 -100.00391261 226.86167902 -87.81933594 226.796875 C-87.11095581 226.79505219 -86.40257568 226.79322937 -85.67272949 226.79135132 C-68.71161735 226.7177512 -51.03709325 225.44509395 -37.25683594 214.27734375 C-30.68078708 207.53982941 -27.59624616 199.33903943 -27.19433594 190.046875 C-27.40161014 182.96297442 -29.49630742 176.3952083 -34.40527344 171.171875 C-47.90929439 160.32849758 -67.11100913 156.89596416 -83.61572266 153.29092407 C-88.47837404 152.22672069 -93.33402549 151.13135711 -98.19042969 150.0390625 C-99.64097244 149.71356163 -99.64097244 149.71356163 -101.12081909 149.38148499 C-179.00566708 131.86492079 -179.00566708 131.86492079 -195.60986328 105.74951172 C-207.74252016 85.13210148 -210.33525308 59.42668926 -205.00683594 36.171875 C-198.92322169 13.12805393 -182.88881498 -6.42088157 -162.53662109 -18.39746094 C-113.69871272 -45.30119203 -40.79589392 -38.34762486 0 0 Z " fill="#FFFFFF" transform="translate(758.5068359375,160.515625)"/>
<path d="M0 0 C24.42 0 48.84 0 74 0 C78.29 9.24 82.58 18.48 87 28 C89.62938274 33.44904976 92.25870388 38.89415086 94.92929077 44.32244873 C101.18269762 57.04029374 107.29401648 69.81010099 113.2097168 82.68896484 C116.12024206 89.00708133 119.090591 95.29137468 122.1328125 101.546875 C122.48146866 102.26400665 122.83012482 102.98113831 123.18934631 103.72000122 C124.8959043 107.22595467 126.60876385 110.72869598 128.32885742 114.22802734 C128.94455018 115.48793057 129.56019404 116.7478577 130.17578125 118.0078125 C130.72145752 119.11785645 131.26713379 120.22790039 131.8293457 121.37158203 C133 124 133 124 133 126 C133.66 126 134.32 126 135 126 C135.26014893 125.16509033 135.52029785 124.33018066 135.78833008 123.4699707 C137.10657279 119.69479768 138.69990692 116.10004859 140.38671875 112.48046875 C140.7202536 111.75784348 141.05378845 111.0352182 141.39743042 110.29069519 C142.11606676 108.73449129 142.83610309 107.17893327 143.55740356 105.6239624 C145.49513792 101.44625088 147.42243848 97.26372375 149.3515625 93.08203125 C149.74455032 92.23096802 150.13753815 91.37990479 150.54243469 90.50305176 C154.24784253 82.47485161 157.9105118 74.42760756 161.5625 66.375 C162.78223139 63.68735436 164.00235914 60.99988883 165.22265625 58.3125 C165.67831215 57.3089875 165.67831215 57.3089875 166.14317322 56.28520203 C169.57256883 48.73518387 173.01490626 41.19108271 176.46115112 33.64874268 C177.13872318 32.1657315 177.81608116 30.68262249 178.49319458 29.19940186 C179.44273628 27.11961907 180.39312901 25.04022715 181.34375 22.9609375 C182.15102539 21.19435791 182.15102539 21.19435791 182.97460938 19.39208984 C185.96032485 12.9175212 188.98489674 6.46093556 192 0 C215.43 0 238.86 0 263 0 C261.5400622 4.37981339 260.20496254 7.75436515 258.05078125 11.7265625 C257.45797363 12.82581055 256.86516602 13.92505859 256.25439453 15.05761719 C255.60712036 16.24675786 254.95982148 17.43588508 254.3125 18.625 C253.63604408 19.87635101 252.96010969 21.12798408 252.28466797 22.37988281 C250.88373047 24.97540284 249.48057387 27.56970342 248.07568359 30.16308594 C244.90711401 36.01555328 241.76644636 41.88293645 238.625 47.75 C238.01462891 48.88856445 237.40425781 50.02712891 236.77539062 51.20019531 C233.40363776 57.49378387 230.04408309 63.79364062 226.69921875 70.1015625 C226.33788345 70.78298309 225.97654816 71.46440369 225.60426331 72.16647339 C224.87278714 73.54605293 224.14132658 74.92564075 223.40988159 76.30523682 C223.04774567 76.98825867 222.68560974 77.67128052 222.3125 78.375 C221.95012238 79.05850525 221.58774475 79.7420105 221.21438599 80.44622803 C216.88062981 88.61724874 212.51438334 96.76751778 208.0625 104.875 C202.98835632 114.116969 198.04852734 123.42726801 193.125 132.75 C187.51435264 143.37331821 181.88487308 153.9853968 176.1875 164.5625 C175.63143066 165.59536133 175.07536133 166.62822266 174.50244141 167.69238281 C170.10908478 175.83464684 170.10908478 175.83464684 168.77639198 177.85477257 C164.89374115 184.04032412 164.27874799 189.00327153 164.34057617 196.21118164 C164.33009247 197.29514221 164.31960876 198.37910278 164.30880737 199.49591064 C164.2801855 203.05095497 164.28633425 206.60501794 164.29296875 210.16015625 C164.27984603 212.63595289 164.26454006 215.11173884 164.24714661 217.58750916 C164.20735165 224.08285183 164.19710961 230.57791406 164.19311523 237.07336426 C164.18212923 244.87796719 164.13427267 252.68241117 164.09262848 260.48690033 C164.03357448 272.32472581 164.02122583 284.1617741 164 296 C143.54 296 123.08 296 102 296 C102.07863281 288.265625 102.15726562 280.53125 102.23828125 272.5625 C102.25914265 267.61307631 102.27610403 262.66423396 102.27929688 257.71484375 C102.28470916 249.88737048 102.3032403 242.06172042 102.40795898 234.23486328 C102.49163856 227.91226026 102.50975686 221.59233359 102.48558617 215.26925659 C102.487355 212.8774671 102.51132505 210.48556996 102.55968666 208.0942688 C102.89481195 190.47122278 99.15967937 178.60832961 89.70862389 163.73174953 C86.86663751 159.18797894 84.29173493 154.49514809 81.6875 149.8125 C80.60473524 147.90462513 79.52154398 145.99699207 78.4375 144.08984375 C74.63743959 137.37912223 70.90802764 130.62999178 67.1875 123.875 C66.6854303 122.96353714 66.6854303 122.96353714 66.17321777 122.03366089 C64.46560866 118.93302649 62.75891642 115.83188862 61.05273438 112.73046875 C57.68523767 106.60963765 54.31166489 100.49215702 50.9375 94.375 C50.44049088 93.47379425 50.44049088 93.47379425 49.93344116 92.55438232 C44.5261307 82.75057819 39.09467735 72.96035755 33.65087891 63.17675781 C30.39667708 57.32518122 27.15258503 51.46827883 23.92578125 45.6015625 C23.58533783 44.98282257 23.24489441 44.36408264 22.89413452 43.72659302 C20.09830755 38.64520501 20.09830755 38.64520501 18.80371094 36.28887939 C13.81105817 27.20492338 8.72357829 18.18023574 3.45239258 9.25439453 C2.99372803 8.46661621 2.53506348 7.67883789 2.0625 6.8671875 C1.46115234 5.84794189 1.46115234 5.84794189 0.84765625 4.80810547 C0 3 0 3 0 0 Z " fill="#FFFFFF" transform="translate(264,136)"/>
<path d="M0 0 C0.92813507 -0.00511093 1.85627014 -0.01022186 2.81253052 -0.01548767 C5.85514935 -0.02929181 8.89753928 -0.02843365 11.94018555 -0.02612305 C14.07333967 -0.03001537 16.20649302 -0.03435114 18.33964539 -0.03910828 C22.80213945 -0.04655105 27.26455437 -0.04629357 31.72705078 -0.04101562 C37.41931005 -0.03522751 43.11124325 -0.0521458 48.80344868 -0.0753603 C53.20720789 -0.09016004 57.61088974 -0.0909608 62.01466942 -0.08785057 C64.11202832 -0.08836077 66.20939191 -0.09354142 68.30672646 -0.10366249 C96.44118168 -0.22276924 96.44118168 -0.22276924 106.29174805 8.2512207 C116.69550865 18.92280089 116.86807406 30.52189724 117.12939453 44.625 C117.17762358 46.59524586 117.252714 48.56502215 117.35498047 50.53320312 C118.16599827 66.35268095 118.16599827 66.35268095 115.09811401 71.06677246 C111.68872384 74.65055581 107.54905684 76.8800726 103.2644043 79.2746582 C101.50266161 80.5867204 99.76388732 81.93058893 98.05737305 83.3137207 C97.2871582 83.91313477 96.51694336 84.51254883 95.72338867 85.13012695 C94.97379883 85.71407227 94.22420898 86.29801758 93.4519043 86.8996582 C92.25210938 87.83358398 92.25210938 87.83358398 91.02807617 88.78637695 C89.10659493 90.28214079 87.18536954 91.77823179 85.2644043 93.2746582 C88.72128095 96.86498046 92.2772436 99.94686793 96.2644043 102.9621582 C97.87480533 104.18433756 99.48220073 105.41126692 101.05761719 106.67822266 C103.37217927 108.42477411 103.37217927 108.42477411 106.56298828 110.06445312 C111.08981272 112.6925537 115.33371759 115.31295463 116.97076416 120.52249146 C117.86584572 126.07785966 117.72455264 131.61844148 117.46484375 137.22363281 C117.32731987 140.2031547 117.28049455 143.17315598 117.25073242 146.15551758 C117.01897055 158.64724024 116.30306949 170.06529947 107.2644043 179.55200195 C101.52157951 184.49845846 95.35066267 187.36821138 87.76403809 187.43528748 C86.86715271 187.4453331 85.97026733 187.45537872 85.04620361 187.46572876 C84.0695575 187.47155975 83.09291138 187.47739075 82.08666992 187.48339844 C81.05197571 187.49318222 80.01728149 187.502966 78.95123291 187.51304626 C75.52438638 187.54297561 72.09757895 187.56438291 68.6706543 187.58325195 C67.49778366 187.58982378 66.32491302 187.59639561 65.11650085 187.60316658 C58.90409552 187.63575462 52.69170726 187.66020298 46.47924805 187.6796875 C41.35008616 187.6974734 36.22147682 187.73225229 31.0925293 187.78222656 C24.88922045 187.84259318 18.68642244 187.87318656 12.48283386 187.88286018 C10.12584998 187.89139027 7.76887884 187.91014733 5.4120636 187.93960381 C-19.87434065 188.23854192 -19.87434065 188.23854192 -29.92901611 179.33161926 C-37.13193956 172.12717487 -39.0717908 163.8677543 -39.1262207 153.9855957 C-39.11440914 150.5392796 -39.05326921 147.09526106 -38.9855957 143.6496582 C-38.96549793 141.86452201 -38.94725296 140.07936395 -38.9309082 138.29418945 C-38.89060334 133.95335591 -38.81227581 129.61560451 -38.7355957 125.2746582 C-28.1755957 125.2746582 -17.6155957 125.2746582 -6.7355957 125.2746582 C-6.7355957 135.1746582 -6.7355957 145.0746582 -6.7355957 155.2746582 C23.2944043 155.2746582 53.3244043 155.2746582 84.2644043 155.2746582 C85.76493784 135.03588863 85.76493784 135.03588863 76.1394043 127.7121582 C73.81722466 126.12933704 73.81722466 126.12933704 71.64331055 125.0012207 C68.6298375 123.2498778 66.43346885 121.5689853 64.16674805 118.9230957 C57.93584124 111.97119113 52.29615575 109.8677768 43.0925293 109.30200195 C33.81408466 108.86456976 24.5460385 109.02548682 15.2644043 109.2746582 C15.2644043 98.7146582 15.2644043 88.1546582 15.2644043 77.2746582 C19.1006543 77.39260742 19.1006543 77.39260742 23.0144043 77.51293945 C44.35795591 78.89178793 44.35795591 78.89178793 62.8269043 70.3371582 C64.52357782 68.6102939 66.13047328 66.85085147 67.69506836 65.00366211 C70.35314759 62.07514358 73.51870194 59.84809722 76.7019043 57.5246582 C80.10866338 55.04504448 80.10866338 55.04504448 83.2644043 52.2746582 C83.5944043 45.6746582 83.9244043 39.0746582 84.2644043 32.2746582 C54.2344043 32.2746582 24.2044043 32.2746582 -6.7355957 32.2746582 C-6.7355957 42.5046582 -6.7355957 52.7346582 -6.7355957 63.2746582 C-17.2955957 63.2746582 -27.8555957 63.2746582 -38.7355957 63.2746582 C-38.82797305 58.04507385 -38.90743952 52.81837656 -38.95532227 47.58862305 C-38.9753041 45.81378531 -39.00249925 44.03901227 -39.03735352 42.2644043 C-39.29867033 28.60675791 -38.74721015 18.53428924 -28.87231445 8.18481445 C-20.82753418 0.99304562 -10.3845715 -0.03006142 0 0 Z " fill="#E63B18" transform="translate(866.735595703125,41.725341796875)"/>
<path d="M0 0 C17.43632739 0 17.43632739 0 25 1.6875 C26.2669873 1.95868652 26.2669873 1.95868652 27.55957031 2.23535156 C49.88425448 7.19357691 69.5300923 17.28550863 87 32 C87.76183594 32.62648437 88.52367187 33.25296875 89.30859375 33.8984375 C95.3270997 39.00947375 100.18457631 44.76066071 105 51 C105.65742187 51.81855469 106.31484375 52.63710938 106.9921875 53.48046875 C128.78696909 81.70864972 136.64809871 118.42812212 132.28149414 153.47021484 C126.78794844 189.8781139 106.23381201 221.89030538 76.86328125 243.64453125 C53.67196052 260.10426225 28.01875514 266.83255187 0 268 C0 257.11 0 246.22 0 235 C2.495625 234.7525 4.99125 234.505 7.5625 234.25 C31.93571033 231.48948532 52.304651 221.95547378 70 205 C70.95519531 204.12214844 70.95519531 204.12214844 71.9296875 203.2265625 C89.64927413 186.45202049 99.04911885 161.03676278 100 137 C100.47980767 109.6929461 90.80605855 83.93663799 72.01220703 64.0546875 C70.68796264 62.69023046 69.34450106 61.34450106 68 60 C67.00033203 59.00033203 67.00033203 59.00033203 65.98046875 57.98046875 C47.60192536 40.84005881 24.08045091 35.10715496 0 32 C0 21.44 0 10.88 0 0 Z " fill="#E63B18" transform="translate(1017,0)"/>
<path d="M0 0 C21.76395328 0 39.1447576 7.89810994 55.125 22.625 C69.73120095 37.92102152 76.53636902 58.05625493 76.35351562 78.95556641 C75.77071274 99.61592876 67.36242463 117.39740104 53 132 C52.31164063 132.70125 51.62328125 133.4025 50.9140625 134.125 C37.19171505 147.18418567 18.85552491 154 0 154 C0 144.43 0 134.86 0 125 C2.206875 124.649375 4.41375 124.29875 6.6875 123.9375 C19.44286494 121.53767199 29.94113876 115.25938212 38 105 C45.52978174 92.7269254 48.48751626 80.03816293 45.72265625 65.84765625 C42.45423926 52.96832659 34.46516924 42.30724086 23.24609375 35.2734375 C15.64681235 31.16517086 8.47581458 29.52564662 0 28 C0 18.76 0 9.52 0 0 Z " fill="#E63B18" transform="translate(1017,57)"/>
<path d="M0 0 C5.81340318 4.60735917 10.06634388 10.37738686 10.9921875 17.8984375 C11.3189043 25.46562019 9.9848109 31.5652019 4.91015625 37.3359375 C-0.42021078 42.35151907 -5.94958116 45.34303527 -13.32421875 45.703125 C-20.02806256 45.41393958 -26.18903537 42.55038689 -31.32421875 38.328125 C-36.92590037 30.84912306 -37.96368228 24.59431347 -37.32421875 15.328125 C-35.2700187 8.07800719 -30.5218238 2.41635687 -24.26171875 -1.671875 C-16.79595849 -4.25617663 -6.82606035 -4.15118017 0 0 Z " fill="#E63B18" transform="translate(1031.32421875,112.671875)"/>
</svg>
